HIERARCHY
ROOT Hips
{
	OFFSET 0.00000 0.00000 0.00000
	CHANNELS 6 Xposition Yposition Zposition Zrotation Yrotation Xrotation 
	JOINT LHipJoint
	{
		OFFSET 0 0 0
		CHANNELS 3 Zrotation Yrotation Xrotation
		JOINT LeftHip
		{
			OFFSET 1.75344 -1.53157 0.77399
			CHANNELS 3 Zrotation Yrotation Xrotation
			JOINT LeftKnee
			{
				OFFSET 2.25415 -6.19323 0.00000
				CHANNELS 3 Zrotation Yrotation Xrotation
				JOINT LeftAnkle
				{
					OFFSET 2.30342 -6.32861 0.00000
					CHANNELS 3 Zrotation Yrotation Xrotation
					JOINT LeftToe
					{
						OFFSET 0.10958 -0.30108 1.49206
						CHANNELS 3 Zrotation Yrotation Xrotation
						End Site
						{
							OFFSET 0.00000 -0.00000 0.77783
						}
					}
				}
			}
		}
	}
	JOINT RHipJoint
	{
		OFFSET 0 0 0
		CHANNELS 3 Zrotation Yrotation Xrotation
		JOINT RightHip
		{
			OFFSET -1.81912 -1.53156 0.77399
			CHANNELS 3 Zrotation Yrotation Xrotation
			JOINT RightKnee
			{
				OFFSET -2.22882 -6.12365 0.00000
				CHANNELS 3 Zrotation Yrotation Xrotation
				JOINT RightAnkle
				{
					OFFSET -2.21943 -6.09785 0.00000
					CHANNELS 3 Zrotation Yrotation Xrotation
					JOINT RightToe
					{
						OFFSET -0.18931 -0.52012 1.59379
						CHANNELS 3 Zrotation Yrotation Xrotation
						End Site
						{
							OFFSET -0.00000 -0.00000 0.84686
						}
					}
				}
			}
		}
	}
	JOINT lowerback
	{
		OFFSET 0 0 0
		CHANNELS 3 Zrotation Yrotation Xrotation
		JOINT Chest
		{
			OFFSET -0.00200 1.66634 -0.14248
			CHANNELS 3 Zrotation Yrotation Xrotation
			JOINT Chest2
			{
				OFFSET -0.00875 1.64542 0.09514
				CHANNELS 3 Zrotation Yrotation Xrotation
				JOINT lowerneck
				{
					OFFSET 0 0 0
					CHANNELS 3 Zrotation Yrotation Xrotation
					JOINT Neck
					{
						OFFSET 0.02257 1.59605 0.00839
						CHANNELS 3 Zrotation Yrotation Xrotation
						JOINT Head
						{
							OFFSET -0.10214 1.57530 -0.23335
							CHANNELS 3 Zrotation Yrotation Xrotation
							End Site
							{
								OFFSET -0.03588 1.60717 -0.08062
							}
						}
					}
				}
				JOINT LeftCollar
				{
					OFFSET 0 0 0
					CHANNELS 3 Zrotation Yrotation Xrotation
					JOINT LeftShoulder
					{
						OFFSET 2.54983 1.10186 0.40078
CHANNELS 3 Zrotation Xrotation Yrotation
						JOINT LeftElbow
						{
OFFSET 0 -4.288400 0.000000
CHANNELS 3 Zrotation Xrotation Yrotation
							JOINT LeftWrist
							{
OFFSET 0 -3.065520 -0.000000
CHANNELS 3 Zrotation Xrotation Yrotation
								JOINT lhand
								{
									OFFSET 0 0 0
CHANNELS 3 Zrotation Xrotation Yrotation
									JOINT LFingers
									{
OFFSET 0 -0.753040 0.000000
CHANNELS 3 Zrotation Xrotation Yrotation
										End Site
										{
OFFSET 0 -0.607120 0.000000
										}
									}
								}
								JOINT LThumb
								{
OFFSET 0 0.000000 0.000000
CHANNELS 3 Zrotation Xrotation Yrotation
									End Site
									{
OFFSET 0 -0.616390 0.616390
									}
								}
							}
						}
					}
				}
				JOINT RightCollar
				{
					OFFSET 0 0 0
					CHANNELS 3 Zrotation Yrotation Xrotation
					JOINT RightShoulder
					{
						OFFSET -2.60909 1.35448 0.21802
CHANNELS 3 Zrotation Xrotation Yrotation
						JOINT RightElbow
						{
OFFSET 0 -4.521720 -0.000000
CHANNELS 3 Zrotation Xrotation Yrotation
							JOINT RightWrist
							{
OFFSET 0 -2.891400 0.000000
CHANNELS 3 Zrotation Xrotation Yrotation
								JOINT rhand
								{
									OFFSET 0 0 0
CHANNELS 3 Zrotation Xrotation Yrotation
									JOINT RFingers
									{
OFFSET 0 -0.680540 0.000000
CHANNELS 3 Zrotation Xrotation Yrotation
										End Site
										{
OFFSET 0 -0.548670 0.000000
										}
									}
								}
								JOINT RThumb
								{
OFFSET 0 0.000000 0.000000
CHANNELS 3 Zrotation Xrotation Yrotation
									End Site
									{
OFFSET 0 -0.557050 0.557050
									}
								}
							}
						}
					}
				}
			}
		}
	}
}
MOTION
Frames: 12
Frame Time: 0.008333333333333333
7.433700 15.044000 42.208400 179.958000 -2.031500 177.090000 0.000000 0.000000 0.000000 -29.587700 -19.980100 2.229100 2.369800 9.597300 27.682200 2.151600 9.179400 -32.225400 1.195500 -6.937800 -19.531100 0.000000 0.000000 0.000000 19.599500 7.272000 -4.612200 -2.809900 -10.380700 30.218700 -1.713500 -14.503800 -33.568000 -2.746200 -10.272400 29.863500 3.177100 1.593100 1.040900 -3.777500 1.480600 -7.374300 -5.876900 0.119100 -8.152900 -4.338300 0.982900 -0.433200 -2.878100 0.052600 23.391500 -0.316900 -1.501200 7.227000 -0.000000 0.000000 0.000000 15.185800 24.409100 -39.891100 20.193500 -30.874700 5.630300 2.058500 18.595100 17.237400 0.000000 0.000000 0.000000 -7.125000 0.000000 0.000000 -16.981600 13.250900 -13.244800 -0.000000 0.000000 0.000000 -10.285600 29.768400 63.935600 -26.579600 -37.775300 -9.240400 -10.587100 12.866200 62.337900 0.000000 0.000000 0.000000 7.125000 0.000000 -0.000000 -165.364600 3.466600 14.202900
7.435971 15.042642 42.180389 180.116843 -1.308443 176.940616 0.000000 0.000000 0.000000 -29.497145 -19.693831 2.605643 2.333058 9.527859 27.460901 2.220585 9.076419 -32.566669 1.233458 -7.038001 -19.830132 0.000000 0.000000 0.000000 19.873768 7.624275 -4.358977 -2.822450 -10.401878 30.288310 -1.646437 -14.619427 -33.276042 -0.002952 -0.307545 0.845060 2.892031 0.961933 0.896848 -3.189321 0.943321 -5.215784 -5.000951 0.112698 -5.820842 -5.098071 1.077412 -8.935611 -2.947323 1.400198 25.864202 -0.132497 -0.918689 9.634370 0.000000 0.000000 0.000000 11.181127 20.786156 -31.219072 20.375322 -31.091636 5.724004 -21.617543 32.337978 27.300287 0.000000 0.000000 0.000000 -7.125000 0.000000 0.000000 -29.307687 3.565623 -32.053860 0.000000 0.000000 0.000000 -10.467633 22.138368 62.709116 -24.611427 -35.804009 -8.061550 -3.726046 6.094724 60.361050 0.000000 0.000000 0.000000 7.125000 0.000000 0.000000 -16.627890 -3.442358 -163.686713
7.440712 15.039392 42.159831 180.024773 -0.817435 176.777154 0.000000 0.000000 0.000000 -29.587125 -19.205424 2.839492 2.303558 9.471732 27.282414 2.214430 9.164441 -32.585536 1.196420 -6.940372 -19.538793 0.000000 0.000000 0.000000 19.856980 7.930073 -4.040563 -2.839262 -10.430135 30.381285 -1.774137 -14.098549 -33.583724 -0.015773 -0.811559 2.230553 2.757013 0.801198 1.095416 -3.125446 0.720772 -5.302597 -4.849508 0.000511 -6.052713 -4.776014 1.452226 -9.006478 -3.191931 1.782964 26.895041 -0.255942 -0.853453 10.019850 0.000000 0.000000 0.000000 9.469052 23.080814 -26.969360 21.666703 -32.598355 6.405414 -15.368322 29.880397 29.106557 0.000000 0.000000 0.000000 -7.125000 0.000000 0.000000 -26.035301 2.330535 -28.071956 0.000000 0.000000 0.000000 -10.288187 22.895785 61.522084 -25.232956 -36.441164 -8.427849 -2.846971 3.865827 60.463987 0.000000 0.000000 0.000000 7.125000 0.000000 0.000000 -16.912842 -3.502131 -163.399167
7.444150 15.031170 42.114777 179.730484 -0.054035 176.374586 0.000000 0.000000 0.000000 -30.106248 -18.657810 3.616506 2.244574 9.357927 26.921563 2.252654 9.494541 -33.015646 1.106992 -6.684725 -18.784682 0.000000 0.000000 0.000000 19.705377 8.326192 -3.369515 -2.853713 -10.454399 30.461026 -1.739878 -14.155801 -33.432461 -0.004396 -0.426216 1.171169 2.441527 0.915153 0.983605 -3.288991 0.853516 -5.134347 -4.844987 0.086629 -5.797232 -4.837548 1.808069 -8.702303 -2.267412 1.878518 27.933496 0.068531 -0.820650 10.321342 0.000000 0.000000 0.000000 8.780858 25.515079 -23.947418 23.125534 -34.225167 7.209019 -5.447671 21.772238 31.471890 0.000000 0.000000 0.000000 -7.125000 0.000000 0.000000 -20.725100 0.102263 -22.193736 0.000000 0.000000 0.000000 -9.873315 23.681589 60.093519 -25.400657 -36.610713 -8.527756 -4.980853 5.931895 59.798535 0.000000 0.000000 0.000000 7.125000 0.000000 0.000000 -16.200966 -3.738184 -164.233416
7.453515 15.026692 42.077647 179.883364 0.497509 176.199164 0.000000 0.000000 0.000000 -30.109662 -18.588054 4.120772 2.228829 9.327304 26.824750 2.265171 10.093238 -33.471256 1.105038 -6.678436 -18.766483 0.000000 0.000000 0.000000 20.055724 8.747448 -2.849411 -2.833379 -10.420373 30.348974 -1.735290 -14.219792 -33.458852 -0.000462 -0.136153 0.374209 2.341999 0.541239 0.799442 -3.236469 0.979423 -5.167452 -4.763816 0.423186 -5.726242 -5.247034 2.045249 -8.244926 -1.149113 1.741857 29.022462 0.497752 -0.926569 10.614237 0.000000 0.000000 0.000000 8.551608 28.384745 -22.938963 24.280996 -35.459903 7.868946 3.443280 12.580016 34.019629 0.000000 0.000000 0.000000 -7.125000 0.000000 0.000000 -15.960939 -2.945069 -17.438375 0.000000 0.000000 0.000000 -9.824949 24.526619 59.193111 -25.017419 -36.221743 -8.300173 -6.653576 7.336590 58.662459 0.000000 0.000000 0.000000 7.125000 0.000000 0.000000 -15.597987 -4.479490 -165.093522
7.465013 15.017446 42.037809 180.635290 1.029251 175.498025 0.000000 0.000000 0.000000 -29.555711 -18.166756 4.793887 2.317426 9.498074 27.366251 2.416516 9.997670 -34.260375 1.142084 -6.780476 -19.068882 0.000000 0.000000 0.000000 21.232359 8.978507 -1.411113 -2.712598 -10.214581 29.674509 -1.575625 -14.942616 -33.137798 -0.002548 0.305186 -0.838490 2.762025 0.559886 1.140747 -3.041065 0.998185 -5.002536 -4.799753 0.403796 -5.743690 -5.841048 2.262726 -7.671233 0.136101 1.574843 29.720960 1.026313 -1.017488 10.738771 0.000000 0.000000 0.000000 8.106904 31.168068 -21.713776 24.847633 -36.047875 8.200094 4.886298 9.449971 36.625061 0.000000 0.000000 0.000000 -7.125000 0.000000 0.000000 -15.320487 -5.604340 -17.348303 0.000000 0.000000 0.000000 -10.067605 25.410455 58.114540 -24.761110 -35.958541 -8.149306 -7.187141 4.275633 56.579581 0.000000 0.000000 0.000000 7.125000 0.000000 0.000000 -15.311140 -6.307308 -165.934596
7.466315 15.025566 42.012777 180.395848 1.458008 175.678135 0.000000 0.000000 0.000000 -29.820496 -18.126611 4.844876 2.279402 9.425361 27.135082 2.357054 10.555186 -34.288412 1.255031 -7.101531 -20.016814 0.000000 0.000000 0.000000 21.026058 9.477500 -1.410112 -2.725927 -10.237601 29.749532 -1.606450 -14.640291 -33.058758 -0.007187 -0.543570 1.493753 2.370158 0.646556 0.688152 -3.286381 1.105535 -5.000786 -4.830801 0.485479 -5.472055 -5.154041 2.345559 -8.024752 -0.185820 1.393781 31.265539 0.745307 -1.221761 11.421382 0.000000 0.000000 0.000000 7.280409 33.006249 -19.436544 23.973303 -35.135996 7.691173 -1.866686 14.158769 26.035016 0.000000 0.000000 0.000000 -7.125000 0.000000 0.000000 -19.107302 4.978545 -18.202761 0.000000 0.000000 0.000000 -9.735316 26.199110 55.287235 -24.917775 -36.119562 -8.241494 -3.115407 -4.791161 54.801339 0.000000 0.000000 0.000000 7.125000 0.000000 0.000000 -16.815888 -8.779943 -165.274233
7.472769 15.022751 41.995852 180.802020 1.952332 175.452980 0.000000 0.000000 0.000000 -29.406467 -17.840056 4.974237 2.319342 9.501786 27.377868 2.449062 10.425476 -34.712165 1.168337 -6.861317 -19.305108 0.000000 0.000000 0.000000 21.763285 10.071319 -0.594621 -2.627928 -10.066873 29.193684 -1.419013 -15.394586 -32.608117 -0.001952 0.131432 -0.361135 2.544564 0.773860 0.768161 -3.340395 1.273954 -4.936450 -4.995399 0.558572 -5.429624 -4.576108 2.494642 -7.865619 -0.348167 1.274864 32.285557 0.544992 -1.354270 11.803383 0.000000 0.000000 0.000000 6.366484 34.192106 -17.170830 22.757162 -33.820425 7.003437 6.459692 9.322527 39.979588 0.000000 0.000000 0.000000 -7.125000 0.000000 0.000000 -14.760367 -9.030285 -17.438718 0.000000 0.000000 0.000000 -9.930244 27.095648 54.956319 -26.460158 -37.657557 -9.168124 -5.708778 -8.573890 55.306720 0.000000 0.000000 0.000000 7.125000 0.000000 0.000000 -15.765919 -7.772911 -165.905428
7.478238 15.014877 41.962708 180.635154 2.120866 174.929801 0.000000 0.000000 0.000000 -29.946927 -17.705604 5.934577 2.285225 9.436595 27.170694 2.439394 10.956285 -35.003161 1.063948 -6.557552 -18.411179 0.000000 0.000000 0.000000 21.709516 10.041336 0.199157 -2.627359 -10.065865 29.190225 -1.495383 -15.221588 -32.908439 -0.000015 -0.014393 0.039558 2.087230 0.768269 0.649855 -3.540396 1.237493 -4.659970 -4.932812 0.565592 -5.076504 -4.257975 2.653999 -7.486754 -0.243175 1.113483 33.139387 0.482209 -1.498821 12.075284 0.000000 0.000000 0.000000 5.065322 34.716324 -14.051047 21.014744 -31.845559 6.057676 11.340994 9.488103 40.061126 0.000000 0.000000 0.000000 -7.125000 0.000000 0.000000 -12.305709 -9.820018 -14.534409 0.000000 0.000000 0.000000 -10.221533 27.656570 55.162072 -27.646069 -38.788227 -9.901220 -8.745099 -6.991479 52.536329 0.000000 0.000000 0.000000 7.125000 0.000000 0.000000 -14.552219 -9.758734 -167.711065
7.484269 15.004422 41.953007 180.707154 2.324367 174.653511 0.000000 0.000000 0.000000 -29.957063 -17.529523 6.202199 2.309204 9.482436 27.316299 2.501485 10.886545 -35.293086 1.172794 -6.870543 -19.333838 0.000000 0.000000 0.000000 21.901966 10.093370 0.600921 -2.627518 -10.066214 29.191486 -1.534745 -14.933788 -32.889106 -0.001556 -0.248454 0.682661 1.794886 0.752084 0.569612 -3.653889 1.197257 -4.436320 -4.875375 0.561111 -4.801231 -4.110499 2.865634 -7.736396 0.161883 1.034194 34.208510 0.573931 -1.583474 12.569079 0.000000 0.000000 0.000000 3.348239 34.720158 -9.797217 20.659146 -31.428321 5.871182 13.921614 7.206665 39.771260 0.000000 0.000000 0.000000 -7.125000 0.000000 0.000000 -10.957122 -9.981321 -12.907675 0.000000 0.000000 0.000000 -10.392529 27.555457 55.490765 -28.213157 -39.311748 -10.258426 -7.175335 -7.421693 54.051017 0.000000 0.000000 0.000000 7.125000 0.000000 0.000000 -15.237024 -8.679032 -166.746107
7.489865 15.006270 41.954415 180.707137 2.365974 174.668768 0.000000 0.000000 0.000000 -29.937990 -17.564649 6.184889 2.319936 9.502930 27.381582 2.541082 10.747231 -35.415837 1.153052 -6.817573 -19.176047 0.000000 0.000000 0.000000 21.917183 10.157117 0.690862 -2.601280 -10.019745 29.040665 -1.664997 -14.420992 -33.216918 -0.022573 -0.970163 2.666810 1.581226 0.878465 0.372803 -3.987003 1.371056 -4.351043 -5.104402 0.663775 -4.580612 -4.722808 3.437210 -8.166665 3.092443 0.876120 35.315950 1.790367 -1.463014 13.088372 0.000000 0.000000 0.000000 2.730269 33.869612 -6.502932 20.917593 -31.732004 6.006559 14.853536 5.006481 38.598243 0.000000 0.000000 0.000000 -7.125000 0.000000 0.000000 -10.314880 -9.006003 -11.983123 0.000000 0.000000 0.000000 -9.365512 27.119832 54.627666 -27.463844 -38.617880 -9.787198 -7.530889 -6.179120 53.441113 0.000000 0.000000 0.000000 7.125000 0.000000 0.000000 -15.077617 -9.174569 -167.050053
7.501518 15.008738 41.979514 181.137364 2.184023 174.725491 0.000000 0.000000 0.000000 -29.286828 -17.653255 5.727844 2.395677 9.645734 27.836921 2.535501 10.643562 -35.319726 1.262874 -7.120467 -20.074050 0.000000 0.000000 0.000000 22.504642 10.234832 0.811454 -2.520609 -9.875245 28.573769 -1.556614 -14.885198 -32.976435 -0.016302 -0.823048 2.262119 1.399582 0.715134 0.379963 -3.880370 1.151702 -4.449360 -4.883371 0.561206 -4.713565 -4.752152 4.033117 -7.828423 3.877832 1.089581 36.391976 2.113838 -1.439059 13.461619 0.000000 0.000000 0.000000 1.668649 32.697093 -3.776483 21.652328 -32.581880 6.397680 16.664249 1.231541 37.452421 0.000000 0.000000 0.000000 -7.125000 0.000000 0.000000 -9.206443 -8.224536 -10.556416 0.000000 0.000000 0.000000 -9.411567 26.947949 56.076426 -26.904224 -38.087653 -9.439991 -11.418043 -3.145986 52.089219 0.000000 0.000000 0.000000 7.125000 0.000000 0.000000 -13.419202 -9.573934 -168.675339
